# xmcd CD database file
#
# Track frame offsets:
#	150
#	21606
#	35926
#	54945
#	73987
#	99658
#	117092
#	145247
#	173127
#	193920
#
# Disc length: 2855 seconds
#
# Revision: 0
# Processed by: cddbd v1.5.2PL0 Copyright (c) Steve Scherf et al.
# Submitted via: CDex 1.51
#
DISCID=9a0b250a
DTITLE=GEGÈ TELESFORO GROOVINATORS - LOVE AND  OTHER CONTRADICTIONS
DYEAR=2007
DGENRE=Jazz
TTITLE0=HERE BUT I'M GONE
TTITLE1=SEEN IN MY LIFE
TTITLE2=AIR MAIL SPECIAL
TTITLE3=AS YOU BELONG TO ME
TTITLE4=THE SIDELOVER
TTITLE5=I'LL LET YOU
TTITLE6=MIA'S BLUES
TTITLE7=THE RULE OF THUMB
TTITLE8=NERO VERO
TTITLE9=ZEP RIFF
EXTD=YEAR: 2007
EXTT0=
EXTT1=
EXTT2=
EXTT3=
EXTT4=
EXTT5=
EXTT6=
EXTT7=
EXTT8=
EXTT9=
PLAYORDER=
